<?xml version="1.0" standalone="no"?>
<!DOCTYPE svg PUBLIC "-//W3C//DTD SVG 20010904//EN"
 "http://www.w3.org/TR/2001/REC-SVG-20010904/DTD/svg10.dtd">
<svg version="1.0" xmlns="http://www.w3.org/2000/svg"
 width="800.000000pt" height="800.000000pt" viewBox="0 0 800.000000 800.000000"
 preserveAspectRatio="xMidYMid meet">

<g transform="translate(0.000000,800.000000) scale(0.100000,-0.100000)"
fill="#000000" stroke="none">
<path d="M1650 6994 c-213 -22 -303 -41 -405 -88 -86 -39 -186 -108 -264 -181
-180 -170 -272 -363 -301 -627 -6 -63 -10 -643 -10 -1642 l0 -1544 -50 -32
c-114 -73 -231 -241 -265 -381 -37 -150 -28 -614 15 -768 78 -279 276 -511
541 -635 109 -50 181 -71 299 -86 118 -14 5463 -14 5580 1 122 15 193 35 299
85 266 125 463 357 541 635 43 154 52 624 16 764 -40 149 -142 298 -260 380
l-56 38 0 1544 c0 998 -4 1578 -10 1641 -28 258 -119 452 -293 619 -152 146
-296 220 -512 261 -83 15 -279 17 -2460 18 -1303 0 -2386 -1 -2405 -2z m4795
-682 c56 -18 130 -74 162 -123 58 -88 56 -28 60 -1676 l4 -1513 -2670 0 -2671
0 0 1398 c0 768 5 1466 10 1551 8 135 13 162 35 208 44 89 126 147 232 162 32
5 1125 8 2428 7 1895 -1 2378 -4 2410 -14z m553 -4189 c-4 -202 -4 -210 -31
-264 -32 -66 -99 -132 -165 -162 l-47 -22 -2755 0 -2755 0 -47 22 c-66 30
-133 96 -165 162 -27 54 -27 62 -31 264 l-4 207 3002 0 3002 0 -4 -207z"/>
</g>
</svg>
