<?xml version="1.0" standalone="no"?>
<!DOCTYPE svg PUBLIC "-//W3C//DTD SVG 20010904//EN"
 "http://www.w3.org/TR/2001/REC-SVG-20010904/DTD/svg10.dtd">
<svg version="1.0" xmlns="http://www.w3.org/2000/svg"
 width="800.000000pt" height="800.000000pt" viewBox="0 0 800.000000 800.000000"
 preserveAspectRatio="xMidYMid meet">

<g transform="translate(0.000000,800.000000) scale(0.100000,-0.100000)"
fill="#000000" stroke="none">
<path d="M3895 7178 c-166 -97 -540 -264 -870 -386 -706 -261 -1370 -415
-2125 -491 -280 -29 -595 -45 -742 -38 -136 7 -158 1 -158 -43 0 -38 481
-2009 516 -2115 117 -354 299 -642 583 -925 329 -328 733 -560 1165 -670 200
-50 327 -64 523 -57 267 10 456 74 701 239 49 33 74 45 77 36 2 -7 20 -65 39
-128 145 -482 483 -979 886 -1303 447 -360 966 -551 1375 -508 235 26 412 79
651 196 255 125 471 282 689 500 436 435 710 987 777 1565 10 89 13 361 13
1210 l0 1095 -21 40 c-26 48 -67 91 -109 113 -47 26 -154 21 -255 -11 -210
-66 -659 -142 -1075 -181 -281 -27 -472 -36 -783 -36 -415 0 -733 20 -1121 72
-144 19 -164 25 -172 43 -5 11 -103 412 -219 892 -115 479 -214 883 -219 896
-8 21 -30 37 -49 37 -4 0 -38 -19 -77 -42z m-229 -1539 c-23 -109 -69 -192
-151 -274 -109 -109 -219 -155 -375 -155 -156 0 -267 46 -376 154 -69 69 -123
158 -140 230 -6 27 -5 28 17 23 13 -3 56 -13 94 -22 107 -25 347 -31 470 -11
127 21 289 75 390 130 77 42 80 43 83 22 2 -13 -4 -56 -12 -97z m-1692 -216
c37 -227 -91 -474 -296 -572 -84 -40 -135 -51 -243 -50 -186 0 -367 102 -453
257 l-23 42 98 0 c311 1 586 100 823 297 41 34 78 62 81 62 4 1 9 -16 13 -36z
m2100 -348 c413 -86 968 -146 1501 -161 573 -17 1399 59 1920 177 71 16 131
29 132 29 9 0 1 -1948 -7 -2025 -57 -513 -307 -1003 -707 -1385 -414 -397
-911 -606 -1304 -551 -369 52 -768 275 -1094 613 -356 367 -578 815 -640 1291
-13 99 -15 274 -15 1089 l0 970 23 -6 c12 -3 98 -22 191 -41z m-1033 -590
c154 -27 309 -92 407 -172 l42 -34 0 -146 c0 -124 -2 -144 -15 -139 -79 30
-501 42 -650 17 -118 -19 -261 -56 -362 -95 -247 -94 -508 -259 -654 -413
l-56 -59 -6 62 c-12 130 22 313 81 429 133 265 452 490 777 550 97 18 334 18
436 0z"/>
<path d="M4759 4109 c-117 -27 -239 -103 -307 -191 -44 -57 -88 -144 -98 -195
l-6 -31 90 24 c293 76 628 36 900 -105 l72 -38 0 36 c0 20 -7 65 -15 100 -45
190 -207 351 -397 396 -68 16 -181 18 -239 4z"/>
<path d="M6486 4104 c-134 -32 -279 -146 -344 -270 -34 -66 -62 -166 -62 -227
l0 -37 53 29 c102 58 257 113 382 136 158 29 377 21 533 -18 l94 -24 -6 31
c-13 66 -77 176 -140 239 -132 132 -325 186 -510 141z"/>
<path d="M4595 2748 c35 -227 130 -415 286 -563 153 -145 329 -233 579 -291
318 -74 684 -16 974 155 93 54 229 179 291 266 84 117 148 278 170 428 l7 47
-68 -47 c-202 -136 -566 -257 -884 -294 -155 -17 -404 -7 -570 25 -289 54
-573 163 -743 283 l-49 34 7 -43z"/>
</g>
</svg>
