<?xml version="1.0" standalone="no"?>
<!DOCTYPE svg PUBLIC "-//W3C//DTD SVG 20010904//EN"
 "http://www.w3.org/TR/2001/REC-SVG-20010904/DTD/svg10.dtd">
<svg version="1.0" xmlns="http://www.w3.org/2000/svg"
 width="800.000000pt" height="800.000000pt" viewBox="0 0 800.000000 800.000000"
 preserveAspectRatio="xMidYMid meet">

<g transform="translate(0.000000,800.000000) scale(0.100000,-0.100000)"
fill="#000000" stroke="none">
<path d="M6410 7644 c-14 -2 -59 -9 -100 -15 -162 -24 -347 -103 -490 -210
-68 -50 -299 -283 -919 -924 -107 -110 -201 -201 -211 -203 -9 -2 -624 138
-1366 310 l-1349 312 -135 0 c-115 0 -145 -3 -200 -22 -138 -49 -189 -89 -450
-351 -321 -322 -387 -410 -426 -577 -24 -101 -15 -255 21 -352 75 -206 191
-318 431 -415 60 -25 486 -170 946 -323 461 -154 838 -281 838 -284 0 -3 -179
-184 -397 -402 l-398 -398 -360 41 c-198 22 -405 40 -460 40 -180 0 -307 -51
-457 -185 -109 -96 -319 -316 -379 -396 -184 -243 -169 -594 34 -816 83 -91
116 -114 663 -479 l488 -326 325 -487 c179 -268 347 -515 373 -549 165 -212
395 -312 635 -274 182 28 275 90 543 360 214 215 251 264 298 389 42 113 41
209 -8 651 l-43 383 400 400 401 400 272 -818 c150 -451 293 -871 317 -934 76
-197 148 -306 254 -380 206 -144 455 -169 664 -66 104 52 205 139 466 403 250
253 287 301 332 436 16 50 20 88 20 192 l0 130 -316 1364 -316 1363 32 38 c18
20 250 265 517 544 267 279 510 541 541 582 293 392 305 938 28 1345 -166 245
-446 429 -738 485 -77 15 -276 26 -321 18z m202 -675 c173 -36 317 -170 370
-342 17 -57 20 -86 16 -166 -6 -109 -28 -176 -85 -255 -20 -28 -260 -284 -533
-570 -274 -287 -516 -543 -539 -571 -128 -152 -182 -352 -148 -540 8 -44 153
-680 322 -1414 l308 -1334 -205 -203 c-113 -112 -210 -204 -216 -204 -16 0
-20 14 -423 1219 -203 607 -380 1122 -393 1146 -55 93 -146 146 -266 153 -60
3 -87 0 -135 -18 -57 -21 -87 -49 -688 -649 -346 -344 -651 -655 -678 -691
-62 -82 -108 -198 -121 -310 -10 -76 -7 -123 30 -460 23 -207 42 -392 42 -411
0 -33 -12 -48 -145 -178 -80 -77 -149 -141 -153 -141 -4 0 -165 235 -357 523
-192 287 -371 546 -399 576 -36 37 -206 157 -572 402 -287 191 -527 355 -534
364 -12 14 5 35 136 165 l149 149 355 -40 c195 -23 400 -41 455 -42 181 -1
312 50 460 181 50 44 347 338 662 653 653 655 629 625 627 779 0 54 -7 98 -17
120 -24 55 -74 117 -118 149 -30 22 -334 127 -1198 416 -637 212 -1166 391
-1175 398 -14 10 11 40 190 220 113 114 212 207 221 207 8 0 621 -140 1361
-311 1158 -268 1361 -312 1448 -317 164 -8 287 28 419 123 36 25 281 271 585
584 287 297 543 554 569 570 111 71 245 97 373 70z"/>
</g>
</svg>
