<svg xmlns="http://www.w3.org/2000/svg" xmlns:xlink="http://www.w3.org/1999/xlink" width="409" zoomAndPan="magnify" viewBox="0 0 306.75 306.749988" height="409" preserveAspectRatio="xMidYMid meet" version="1.0"><defs><clipPath id="ea5efa7f6f"><path d="M 130 86 L 280 86 L 280 306.5 L 130 306.5 Z M 130 86 " clip-rule="nonzero"/></clipPath></defs><path fill="#2563eb" d="M 151.050781 175.855469 C 135.097656 161.222656 119.355469 146.324219 103.339844 131.746094 C 95.519531 124.632812 94.242188 118.300781 102.871094 110.570312 C 113.8125 100.777344 124.296875 90.421875 134.546875 79.882812 C 149.003906 65.039062 163.050781 49.804688 175.101562 37.015625 C 165.292969 25.46875 154.792969 13.125 143.628906 0 C 105.539062 36.945312 68.730469 72.222656 32.527344 108.121094 C 24.652344 115.921875 25.65625 127.1875 34.007812 135.253906 C 64.3125 164.519531 95.023438 193.359375 126.175781 222.90625 C 135.1875 214.359375 143.683594 206.554688 151.867188 198.429688 C 161.585938 188.785156 161.257812 185.238281 151.050781 175.855469 Z M 151.050781 175.855469 " fill-opacity="1" fill-rule="nonzero"/><g clip-path="url(#ea5efa7f6f)"><path fill="#2563eb" d="M 232.699219 134.316406 C 215.585938 118.265625 198.363281 102.320312 180.894531 86.054688 C 171.535156 94.996094 163.3125 103.171875 154.742188 110.957031 C 146.867188 118.121094 147.386719 124.1875 155.261719 131.195312 C 172.035156 146.128906 188.304688 161.628906 204.871094 176.796875 C 212.34375 183.640625 213.019531 190.027344 205.242188 197.371094 C 188.347656 213.351562 171.695312 229.578125 155.121094 245.878906 C 146.382812 254.480469 138.003906 263.4375 130.082031 271.613281 C 141.3125 283.355469 152.253906 294.816406 163.417969 306.5 C 165.613281 305.347656 166.417969 305.136719 166.941406 304.640625 C 202.109375 270.78125 237.359375 237.011719 272.339844 202.957031 C 282.402344 193.148438 281.453125 180.660156 270.652344 170.285156 C 258.074219 158.207031 245.417969 146.214844 232.699219 134.316406 Z M 232.699219 134.316406 " fill-opacity="1" fill-rule="nonzero"/></g></svg>